# xmcd CD database file
# Copyright (C) 1993-1998 Ti Kan
# 
# Track frame offsets:
#     150
#     13478
#     29160
#     42898
#     53163
#     61440
#     78488
#     90678
#     104858
#     115800
# 
# Disc length: 1684 seconds
# 
# Revision: 1
# Processed by: cddbd v1.4b41PL1 Copyright (c) Steve Scherf et al.
# Submitted via: DiscPlay 4.0.4
# 
DISCID=8e06920a
DTITLE=Hoyt Axton - Lonesome Road
DYEAR=1900
DGENRE=
TTITLE0=Poor Man's Blues
TTITLE1=Me and My Gin
TTITLE2=Lonesome Road
TTITLE3=Young Man
TTITLE4=Big Red
TTITLE5=Send Me To The Electric Chair
TTITLE6=After You've Gone
TTITLE7=Nobody Knows When You're Down and Out
TTITLE8=Red, White and Blue
TTITLE9=Bring Me Some Lovin'
EXTD=
EXTT0=
EXTT1=
EXTT2=
EXTT3=
EXTT4=
EXTT5=
EXTT6=
EXTT7=
EXTT8=
EXTT9=
PLAYORDER=
